<?xml version="1.0" standalone="no"?><!DOCTYPE svg PUBLIC "-//W3C//DTD SVG 1.1//EN" "http://www.w3.org/Graphics/SVG/1.1/DTD/svg11.dtd"><svg t="1779763299025" class="icon" viewBox="0 0 1024 1024" version="1.1" xmlns="http://www.w3.org/2000/svg" p-id="2678" xmlns:xlink="http://www.w3.org/1999/xlink" width="200" height="200"><path d="M0 512C0 229.232 229.232 0 512 0c282.768 0 512 229.232 512 512 0 282.768-229.232 512-512 512C229.232 1024 0 794.768 0 512z" fill="#FDC567" p-id="2679"></path><path d="M512 0c282.768 0 512 229.232 512 512 0 282.768-229.232 512-512 512C229.232 1024 0 794.768 0 512 0 229.232 229.232 0 512 0z m0 24a491.28 491.28 0 0 0-98.368 9.92c-15.872 3.248-31.504 7.264-46.88 12.048h-0.016a484.016 484.016 0 0 0-80.672 33.36 487.04 487.04 0 0 0-81.392 53.568 490.72 490.72 0 0 0-125.328 153.136 485.76 485.76 0 0 0-33.376 80.704 483.968 483.968 0 0 0-16.672 73.12C25.76 463.648 24 487.696 24 512a491.28 491.28 0 0 0 9.92 98.368 483.952 483.952 0 0 0 73.408 174.464 489.872 489.872 0 0 0 214.72 176.832 484.208 484.208 0 0 0 117.824 33.056c23.776 3.52 47.824 5.28 72.128 5.28a491.376 491.376 0 0 0 98.368-9.92 484.192 484.192 0 0 0 174.464-73.408 490.16 490.16 0 0 0 34.512-25.584l0.016-0.016a490.816 490.816 0 0 0 125.312-153.12 486.384 486.384 0 0 0 45.408-127.584A491.312 491.312 0 0 0 1000 512a491.264 491.264 0 0 0-9.92-98.368 483.84 483.84 0 0 0-73.408-174.464 489.936 489.936 0 0 0-178.72-159.84h-0.016A485.6 485.6 0 0 0 512 24z" fill="#000000" p-id="2680"></path><path d="M105.024 505.44c0-228.4 185.152-413.536 413.536-413.536 228.4 0 413.536 185.136 413.536 413.536 0 228.384-185.136 413.536-413.536 413.536-228.384 0-413.536-185.152-413.536-413.536z" fill="#FEE17A" p-id="2681"></path><path d="M518.56 91.904c228.4 0 413.536 185.136 413.536 413.536 0 228.384-185.136 413.536-413.536 413.536-228.384 0-413.536-185.152-413.536-413.536 0-228.4 185.152-413.536 413.536-413.536z m0 24a392.192 392.192 0 0 0-78.528 7.904 386.384 386.384 0 0 0-139.248 58.608 391.52 391.52 0 0 0-84.848 77.728 391.088 391.088 0 0 0-42.768 64.992 387.168 387.168 0 0 0-26.608 64.352 386.32 386.32 0 0 0-13.28 58.144 392.16 392.16 0 0 0-4.256 57.808 392.16 392.16 0 0 0 7.92 78.528 386.336 386.336 0 0 0 36.208 101.76 388.928 388.928 0 0 0 42.768 64.992 391.792 391.792 0 0 0 122.336 100.112 387.312 387.312 0 0 0 122.496 39.888 392.16 392.16 0 0 0 57.808 4.256 392.128 392.128 0 0 0 78.528-7.92 386.272 386.272 0 0 0 101.76-36.224h0.016a388.4 388.4 0 0 0 64.976-42.752l0.032-0.032a391.568 391.568 0 0 0 113.632-150.992 385.824 385.824 0 0 0 26.352-93.808c2.832-19.072 4.24-38.336 4.24-57.808a392.368 392.368 0 0 0-7.904-78.528 385.92 385.92 0 0 0-36.24-101.792 388.896 388.896 0 0 0-42.752-64.96 391.68 391.68 0 0 0-57.344-57.36 390.992 390.992 0 0 0-64.992-42.768h-0.032a387.328 387.328 0 0 0-122.464-39.888 392.192 392.192 0 0 0-57.808-4.24z" fill="#000000" p-id="2682"></path><path d="M446.368 249.44a78.768 78.768 0 1 1 157.536 0 78.768 78.768 0 0 1-157.536 0z" fill="#F66958" p-id="2683"></path><path d="M525.12 170.672a78.768 78.768 0 1 1 0 157.536 78.768 78.768 0 0 1 0-157.536z m0 24a54.8 54.8 0 0 0-21.296 4.288 54.496 54.496 0 0 0-17.424 11.744 54.624 54.624 0 0 0-14.608 51.264 54.208 54.208 0 0 0 7.36 17.28 54.832 54.832 0 0 0 16.16 16.16 54.512 54.512 0 0 0 29.824 8.8 54.208 54.208 0 0 0 29.808-8.8 54.896 54.896 0 0 0 16.16-16.16 54.624 54.624 0 0 0 8.8-29.808 54.8 54.8 0 0 0-4.304-21.312 54.624 54.624 0 0 0-20.672-24.672 54.624 54.624 0 0 0-29.792-8.8z" fill="#000000" p-id="2684"></path><path d="M643.28 341.328a78.768 78.768 0 1 1 157.536 0 78.768 78.768 0 0 1-157.536 0z" fill="#F66958" p-id="2685"></path><path d="M722.048 262.56a78.768 78.768 0 1 1 0 157.536 78.768 78.768 0 0 1 0-157.536z m0 24a54.8 54.8 0 0 0-21.312 4.304 54.496 54.496 0 0 0-17.408 11.744 54.624 54.624 0 0 0-16.048 38.72 54.8 54.8 0 0 0 4.288 21.312 54.496 54.496 0 0 0 11.76 17.424 54.864 54.864 0 0 0 26.176 14.608 54.8 54.8 0 0 0 25.088 0 54.08 54.08 0 0 0 17.264-7.36A54.896 54.896 0 0 0 768 371.136a54.48 54.48 0 0 0 8.8-29.808 54.816 54.816 0 0 0-4.288-21.312 54.48 54.48 0 0 0-20.672-24.656 54.624 54.624 0 0 0-29.808-8.8z" fill="#000000" p-id="2686"></path><path d="M669.536 538.256a78.768 78.768 0 1 1 157.536 0 78.768 78.768 0 0 1-157.536 0z" fill="#F66958" p-id="2687"></path><path d="M748.32 459.488a78.768 78.768 0 1 1 0 157.536 78.768 78.768 0 0 1 0-157.536z m0 24a54.816 54.816 0 0 0-21.328 4.288 54.624 54.624 0 0 0-24.656 20.688 54.496 54.496 0 0 0-8.8 29.792 54.816 54.816 0 0 0 4.304 21.312 54.496 54.496 0 0 0 11.744 17.424 54.8 54.8 0 0 0 26.176 14.608 54.816 54.816 0 0 0 25.088 0 54.192 54.192 0 0 0 17.264-7.36 54.912 54.912 0 0 0 16.16-16.176 54.624 54.624 0 0 0 7.36-42.352 54.176 54.176 0 0 0-7.36-17.248 54.896 54.896 0 0 0-16.16-16.176 54.624 54.624 0 0 0-29.808-8.8z" fill="#000000" p-id="2688"></path><path d="M512 735.184a78.768 78.768 0 1 1 157.536 0 78.768 78.768 0 0 1-157.536 0z" fill="#F66958" p-id="2689"></path><path d="M590.768 656.416a78.768 78.768 0 1 1 0 157.536 78.768 78.768 0 0 1 0-157.536z m0 24a54.816 54.816 0 0 0-21.312 4.288 54.624 54.624 0 0 0-24.656 20.672 54.416 54.416 0 0 0-8.8 29.808 54.816 54.816 0 0 0 4.288 21.312 54.496 54.496 0 0 0 11.76 17.408 54.88 54.88 0 0 0 26.176 14.608 54.816 54.816 0 0 0 25.088 0 54.192 54.192 0 0 0 17.264-7.36 54.816 54.816 0 0 0 16.16-16.16 54.624 54.624 0 0 0 7.36-42.352 54.128 54.128 0 0 0-7.36-17.264 54.896 54.896 0 0 0-16.16-16.16 54.624 54.624 0 0 0-29.808-8.8z" fill="#000000" p-id="2690"></path><path d="M288.816 669.536a78.768 78.768 0 1 1 157.536 0 78.768 78.768 0 0 1-157.536 0z" fill="#F66958" p-id="2691"></path><path d="M367.584 590.768a78.768 78.768 0 1 1 0 157.536 78.768 78.768 0 0 1 0-157.536z m0 24a54.8 54.8 0 0 0-21.312 4.288 54.496 54.496 0 0 0-17.408 11.76 54.48 54.48 0 0 0-16.048 38.72 54.816 54.816 0 0 0 4.304 21.312 54.64 54.64 0 0 0 29.152 29.168 54.368 54.368 0 0 0 21.312 4.288 54.24 54.24 0 0 0 29.808-8.8 54.976 54.976 0 0 0 16.16-16.16 54.56 54.56 0 0 0 8.8-29.808 54.816 54.816 0 0 0-4.288-21.312 54.624 54.624 0 0 0-20.672-24.656 54.624 54.624 0 0 0-29.808-8.8z" fill="#000000" p-id="2692"></path><path d="M249.44 393.84a78.768 78.768 0 1 1 157.536 0 78.768 78.768 0 0 1-157.536 0z" fill="#F66958" p-id="2693"></path><path d="M328.208 315.072a78.768 78.768 0 1 1 0 157.552 78.768 78.768 0 0 1 0-157.552z m0 24a54.816 54.816 0 0 0-21.312 4.304 54.624 54.624 0 0 0-24.672 20.672 54.704 54.704 0 0 0 7.248 68.528 54.96 54.96 0 0 0 26.192 14.608 54.816 54.816 0 0 0 25.088 0 54.368 54.368 0 0 0 26.176-14.608 54.704 54.704 0 0 0 0-77.456 54.48 54.48 0 0 0-38.72-16.048z" fill="#000000" p-id="2694"></path><path d="M498.866982 399.189312m9.335449-9.241422l-0.011371 0.011256q9.335449-9.241422 18.576872 0.094027l46.173342 46.643133q9.241422 9.335449-0.094026 18.576871l0.011371-0.011256q-9.335449 9.241422-18.576872-0.094027l-46.173342-46.643133q-9.241422-9.335449 0.094026-18.576871Z" fill="#70B729" p-id="2695"></path><path d="M538.259097 603.934898m-0.005961-13.135999l0.000007 0.016q-0.005961-13.135999 13.130038-13.141959l65.631993-0.029783q13.135999-0.005961 13.14196 13.130038l-0.000008-0.016q0.005961 13.135999-13.130037 13.141959l-65.631994 0.029783q-13.135999 0.005961-13.141959-13.130038Z" fill="#70B729" p-id="2696"></path><path d="M518.462593 485.740738m10.074686 8.429424l-0.012271-0.010268q10.074687 8.429424 1.645263 18.504111l-42.116317 50.336619q-8.429424 10.074687-18.50411 1.645263l0.012271 0.010268q-10.074687-8.429424-1.645263-18.504111l42.116317-50.33662q8.429424-10.074687 18.50411-1.645262Z" fill="#70B729" p-id="2697"></path><path d="M268.945311 512.009847m8.158499 10.295309l-0.009937-0.01254q8.158499 10.295309-2.136811 18.453808l-51.438926 40.762683q-10.295309 8.158499-18.453808-2.136811l0.009937 0.01254q-8.158499-10.295309 2.136811-18.453808l51.438926-40.762682q10.295309-8.158499 18.453808 2.13681Z" fill="#70B729" p-id="2698"></path><path d="M774.812374 655.626288m10.899076 7.332437l-0.013276-0.008931q10.899076 7.332438 3.566638 18.231514l-36.635395 54.455552q-7.332438 10.899076-18.231514 3.566638l0.013275 0.008932q-10.899076-7.332438-3.566638-18.231514l36.635396-54.455553q7.332438-10.899076 18.231514-3.566638Z" fill="#70B729" p-id="2699"></path></svg>