<?xml version="1.0" standalone="no"?><!DOCTYPE svg PUBLIC "-//W3C//DTD SVG 1.1//EN" "http://www.w3.org/Graphics/SVG/1.1/DTD/svg11.dtd"><svg t="1779763261627" class="icon" viewBox="0 0 1024 1024" version="1.1" xmlns="http://www.w3.org/2000/svg" p-id="1821" xmlns:xlink="http://www.w3.org/1999/xlink" width="200" height="200"><path d="M0 512C0 228.8 228.8 0 512 0s512 228.8 512 512-228.8 512-512 512S0 795.2 0 512z" fill="#FCB3BA" p-id="1822"></path><path d="M512 0c283.2 0 512 228.8 512 512S795.2 1024 512 1024 0 795.2 0 512 228.8 0 512 0z m0 24c-24 0-48 1.6-72 4.8-8 1.6-17.6 3.2-25.6 4.8-16 3.2-32 8-46.4 12.8-14.4 4.8-30.4 9.6-44.8 16-12.8 4.8-24 11.2-35.2 17.6-16 8-32 17.6-46.4 27.2-11.2 8-24 16-35.2 25.6-14.4 11.2-27.2 22.4-40 33.6l-33.6 38.4c-9.6 11.2-17.6 22.4-25.6 35.2-9.6 14.4-19.2 30.4-27.2 46.4-6.4 11.2-11.2 24-17.6 36.8-6.4 14.4-11.2 28.8-16 44.8-4.8 16-9.6 30.4-12.8 46.4-1.6 8-3.2 17.6-4.8 25.6a544.208 544.208 0 0 0 0 144c1.6 8 3.2 17.6 4.8 25.6 3.2 16 8 32 12.8 46.4 4.8 14.4 9.6 30.4 16 44.8 4.8 12.8 11.2 24 17.6 35.2 8 16 17.6 32 27.2 46.4 8 11.2 16 24 25.6 35.2l33.6 38.4c12.8 12.8 24 24 38.4 33.6 11.2 9.6 22.4 17.6 35.2 25.6 14.4 9.6 30.4 19.2 46.4 27.2 11.2 6.4 24 11.2 36.8 17.6 14.4 6.4 28.8 11.2 44.8 16 16 4.8 30.4 9.6 46.4 12.8 8 1.6 17.6 3.2 25.6 4.8a544.208 544.208 0 0 0 144 0c8-1.6 17.6-3.2 25.6-4.8 16-3.2 32-8 46.4-12.8 14.4-4.8 30.4-9.6 44.8-16 12.8-4.8 24-11.2 36.8-17.6 16-8 32-17.6 46.4-27.2 11.2-8 24-16 35.2-25.6l38.4-33.6c12.8-12.8 24-24 33.6-38.4 9.6-11.2 17.6-22.4 25.6-35.2 9.6-14.4 19.2-30.4 27.2-46.4 6.4-11.2 11.2-24 17.6-35.2 6.4-14.4 11.2-28.8 16-44.8 4.8-16 9.6-30.4 12.8-46.4 1.6-8 3.2-17.6 4.8-25.6a544.208 544.208 0 0 0 0-144c-1.6-8-3.2-17.6-4.8-25.6-3.2-16-8-32-12.8-46.4-4.8-14.4-9.6-30.4-16-44.8-4.8-12.8-11.2-24-17.6-36.8-8-16-17.6-32-27.2-46.4-8-11.2-16-24-25.6-35.2l-33.6-38.4-38.4-33.6c-11.2-9.6-22.4-17.6-35.2-25.6-14.4-9.6-30.4-19.2-46.4-27.2-11.2-6.4-24-11.2-36.8-17.6-14.4-6.4-28.8-11.2-44.8-16-16-4.8-30.4-9.6-46.4-12.8-8-1.6-17.6-3.2-25.6-4.8-24-3.2-48-4.8-72-4.8z" fill="#000000" p-id="1823"></path><path d="M1.6 545.6v3.2c-1.6-4.8 0-4.8 0-3.2zM1000 553.6s-1.6 0-1.6 1.6c-12.8 8-32 20.8-60.8 43.2-64 65.6-20.8 128-64 161.6-20.8 16-48 16-78.4 16-33.6 0-70.4 1.6-102.4 24-60.8 43.2-57.6 86.4-129.6 100.8-38.4 8-62.4-16-89.6-40-24-22.4-48-46.4-86.4-52.8-38.4-6.4-67.2 3.2-92.8 11.2-28.8 9.6-52.8 16-76.8-3.2-46.4-36.8-35.2-104-65.6-152-30.4-46.4-67.2-28.8-110.4-65.6-3.2-3.2-6.4-4.8-8-8-9.6-9.6-16-17.6-20.8-24-4.8-8-8-14.4-8-17.6 0 6.4 1.6 12.8 1.6 19.2l4.8 33.6c6.4 36.8 17.6 72 30.4 105.6 25.6 62.4 64 118.4 110.4 166.4C243.2 966.4 371.2 1024 512 1024s268.8-57.6 361.6-150.4c46.4-46.4 84.8-104 110.4-166.4 17.6-43.2 30.4-89.6 35.2-137.6 1.6-8 1.6-16 1.6-24 1.6 0-3.2-1.6-20.8 8z" fill="#000000" p-id="1824"></path><path d="M204.8 891.2c11.2 9.6 22.4 17.6 35.2 25.6 14.4 9.6 30.4 19.2 46.4 28.8 11.2 6.4 24 11.2 35.2 17.6 14.4 6.4 28.8 11.2 44.8 16 16 4.8 30.4 9.6 46.4 12.8 8 1.6 17.6 3.2 25.6 4.8a544.208 544.208 0 0 0 144 0c8-1.6 17.6-3.2 25.6-4.8 16-3.2 32-8 46.4-12.8 14.4-4.8 30.4-9.6 44.8-16 12.8-4.8 24-11.2 35.2-17.6 16-8 32-17.6 46.4-28.8 11.2-8 24-16 35.2-25.6l38.4-33.6c12.8-12.8 24-25.6 35.2-38.4 9.6-11.2 17.6-22.4 25.6-35.2l28.8-48c6.4-12.8 11.2-24 17.6-36.8 9.6-22.4 17.6-44.8 22.4-68.8 3.2-14.4 6.4-30.4 9.6-44.8 0 0-1.6 0-1.6 1.6-11.2 8-24 17.6-38.4 30.4-6.4 6.4-11.2 14.4-16 20.8-1.6 1.6-1.6 3.2-3.2 4.8-3.2 4.8-4.8 9.6-6.4 16-1.6 6.4-3.2 12.8-4.8 20.8 0 4.8-1.6 12.8-1.6 22.4 0 8-1.6 14.4-1.6 19.2-1.6 8-3.2 14.4-4.8 20.8-3.2 9.6-8 19.2-12.8 25.6-3.2 4.8-8 9.6-12.8 12.8-6.4 4.8-14.4 9.6-22.4 12.8-6.4 3.2-14.4 4.8-24 6.4-6.4 1.6-14.4 1.6-24 1.6h-48c-9.6 0-16 1.6-24 3.2s-14.4 3.2-20.8 6.4l-19.2 9.6c-1.6 1.6-4.8 3.2-6.4 4.8-6.4 4.8-12.8 11.2-19.2 17.6-3.2 3.2-6.4 6.4-9.6 11.2-1.6 3.2-4.8 6.4-9.6 11.2-6.4 8-11.2 14.4-16 17.6-6.4 6.4-12.8 12.8-19.2 17.6-8 6.4-16 11.2-25.6 14.4-9.6 4.8-20.8 8-33.6 9.6-11.2 1.6-20.8 3.2-32 1.6s-22.4-4.8-33.6-11.2c-8-4.8-16-9.6-24-17.6-4.8-4.8-11.2-11.2-20.8-19.2-8-8-12.8-12.8-17.6-16-6.4-4.8-12.8-9.6-17.6-14.4-6.4-4.8-12.8-8-19.2-11.2l-14.4-4.8c-1.6 0-4.8-1.6-6.4-1.6-3.2 0-6.4-1.6-9.6-1.6-11.2-1.6-22.4 0-33.6 1.6-6.4 1.6-12.8 1.6-19.2 4.8-4.8 1.6-11.2 3.2-19.2 6.4-9.6 3.2-17.6 4.8-22.4 6.4-9.6 1.6-17.6 3.2-24 3.2-8 0-16 0-24-3.2-9.6-3.2-19.2-8-28.8-14.4-3.2-1.6-6.4-4.8-8-8-4.8-4.8-9.6-9.6-12.8-16-4.8-8-9.6-16-14.4-25.6-3.2-8-6.4-16-9.6-25.6-1.6-4.8-3.2-14.4-6.4-25.6-1.6-8-3.2-12.8-4.8-17.6-1.6-6.4-3.2-11.2-4.8-16-3.2-11.2-8-19.2-12.8-25.6-3.2-4.8-6.4-9.6-9.6-12.8l-4.8-4.8c-1.6-1.6-3.2-1.6-4.8-3.2-3.2-1.6-6.4-3.2-11.2-4.8-3.2-1.6-8-3.2-14.4-4.8-6.4-1.6-9.6-3.2-12.8-4.8-4.8-1.6-11.2-3.2-14.4-6.4-4.8-3.2-11.2-4.8-16-8-1.6 0-1.6-1.6-3.2-1.6v3.2c6.4 24 12.8 46.4 22.4 68.8 4.8 12.8 11.2 25.6 17.6 36.8 8 16 17.6 32 28.8 48 8 12.8 16 24 25.6 35.2 11.2 12.8 22.4 27.2 35.2 38.4 12.8 16 25.6 27.2 38.4 38.4z" fill="#FEC66B" p-id="1825"></path><path d="M345.6 483.2c0-91.2 73.6-166.4 166.4-166.4 91.2 0 166.4 73.6 166.4 166.4 0 91.2-73.6 166.4-166.4 166.4-91.2 0-166.4-75.2-166.4-166.4z" fill="#FFFFFF" p-id="1826"></path><path d="M512 316.8c91.2 0 166.4 73.6 166.4 166.4 0 91.2-73.6 166.4-166.4 166.4-91.2 0-166.4-73.6-166.4-166.4 0-91.2 75.2-166.4 166.4-166.4z m0 24c-11.2 0-20.8 1.6-32 3.2-8 1.6-16 4.8-24 8s-16 8-22.4 11.2c-8 4.8-16 11.2-22.4 19.2-6.4 6.4-12.8 14.4-19.2 22.4-4.8 6.4-8 14.4-11.2 22.4-3.2 8-6.4 16-8 24-1.6 9.6-3.2 20.8-3.2 32s1.6 20.8 3.2 32c1.6 8 4.8 16 8 24s8 16 11.2 22.4c4.8 8 11.2 16 19.2 22.4 6.4 6.4 14.4 12.8 22.4 19.2 6.4 4.8 14.4 8 22.4 11.2 8 3.2 16 6.4 24 8 9.6 1.6 20.8 3.2 32 3.2s20.8-1.6 32-3.2c8-1.6 16-4.8 24-8s16-8 22.4-11.2c8-4.8 16-11.2 22.4-19.2 6.4-6.4 12.8-14.4 19.2-22.4 4.8-6.4 8-14.4 11.2-22.4 3.2-8 6.4-16 8-24 1.6-9.6 3.2-20.8 3.2-32s-1.6-20.8-3.2-32c-1.6-8-4.8-16-8-24s-8-16-11.2-22.4c-4.8-8-11.2-16-19.2-22.4-6.4-6.4-14.4-12.8-22.4-19.2-6.4-4.8-14.4-8-22.4-11.2-8-3.2-16-6.4-24-8-11.2-1.6-20.8-3.2-32-3.2z" fill="#000000" p-id="1827"></path><path d="M473.6 123.2c6.4-6.4 17.6-6.4 24 1.6l49.6 54.4c6.4 6.4 6.4 17.6-1.6 24-6.4 6.4-17.6 6.4-24-1.6l-49.6-54.4c-4.8-6.4-4.8-17.6 1.6-24z" fill="#F4514A" p-id="1828"></path><path d="M364.8 224c8 4.8 11.2 14.4 8 22.4l-32 67.2c-4.8 8-14.4 11.2-22.4 8-8-4.8-11.2-14.4-8-22.4l32-67.2c3.2-9.6 14.4-12.8 22.4-8z" fill="#FBEDBC" p-id="1829"></path><path d="M94.4 457.6c-4.8-8-1.6-19.2 6.4-22.4l64-36.8c8-4.8 19.2-1.6 22.4 6.4 4.8 8 1.6 19.2-6.4 22.4l-64 36.8c-6.4 4.8-17.6 1.6-22.4-6.4zM777.6 560c6.4-6.4 17.6-6.4 24 1.6l36.8 40c6.4 6.4 6.4 17.6-1.6 24-6.4 6.4-17.6 6.4-24-1.6l-36.8-40c-6.4-8-6.4-17.6 1.6-24z" fill="#F4514A" p-id="1830"></path><path d="M635.2 190.4c0-9.6 8-17.6 17.6-17.6h65.6c9.6 0 17.6 8 17.6 17.6 0 9.6-8 17.6-17.6 17.6h-65.6c-9.6 0-17.6-8-17.6-17.6z" fill="#FECF21" p-id="1831"></path><path d="M635.2 190.4c0-9.6 8-17.6 17.6-17.6h65.6c9.6 0 17.6 8 17.6 17.6 0 9.6-8 17.6-17.6 17.6h-65.6c-9.6 0-17.6-8-17.6-17.6z" fill="#FECF21" p-id="1832"></path><path d="M857.6 260.8c9.6 0 16 8 16 17.6l-1.6 35.2c0 9.6-8 16-17.6 16-9.6 0-16-8-16-17.6l1.6-35.2c0-9.6 8-16 17.6-16z" fill="#96B7EC" p-id="1833"></path><path d="M371.2 108.8c8 6.4 8 16 3.2 24L352 161.6c-6.4 8-16 8-24 3.2-8-6.4-8-16-3.2-24L348.8 112c4.8-8 16-8 22.4-3.2zM760 316.8c6.4-8 16-9.6 24-3.2l57.6 43.2c8 6.4 9.6 16 3.2 24-6.4 8-16 9.6-24 3.2l-57.6-43.2c-6.4-6.4-8-17.6-3.2-24z" fill="#FFFFFF" p-id="1834"></path><path d="M760 316.8c6.4-8 16-9.6 24-3.2l57.6 43.2c8 6.4 9.6 16 3.2 24-6.4 8-16 9.6-24 3.2l-57.6-43.2c-6.4-6.4-8-17.6-3.2-24z" fill="#FFFFFF" p-id="1835"></path><path d="M760 316.8c6.4-8 16-9.6 24-3.2l57.6 43.2c8 6.4 9.6 16 3.2 24-6.4 8-16 9.6-24 3.2l-57.6-43.2c-6.4-6.4-8-17.6-3.2-24zM665.6 696c-1.6-9.6 4.8-17.6 14.4-19.2l70.4-11.2c9.6-1.6 17.6 4.8 19.2 14.4 1.6 9.6-4.8 17.6-14.4 19.2l-70.4 11.2c-8 1.6-17.6-4.8-19.2-14.4z" fill="#FFFFFF" p-id="1836"></path><path d="M665.6 696c-1.6-9.6 4.8-17.6 14.4-19.2l70.4-11.2c9.6-1.6 17.6 4.8 19.2 14.4 1.6 9.6-4.8 17.6-14.4 19.2l-70.4 11.2c-8 1.6-17.6-4.8-19.2-14.4z" fill="#FFFFFF" p-id="1837"></path><path d="M665.6 696c-1.6-9.6 4.8-17.6 14.4-19.2l70.4-11.2c9.6-1.6 17.6 4.8 19.2 14.4 1.6 9.6-4.8 17.6-14.4 19.2l-70.4 11.2c-8 1.6-17.6-4.8-19.2-14.4zM228.8 208c8 3.2 12.8 12.8 9.6 22.4l-27.2 67.2c-3.2 8-12.8 12.8-22.4 9.6-8-3.2-12.8-12.8-9.6-22.4l27.2-67.2c3.2-8 12.8-12.8 22.4-9.6z" fill="#FFFFFF" p-id="1838"></path><path d="M228.8 208c8 3.2 12.8 12.8 9.6 22.4l-27.2 67.2c-3.2 8-12.8 12.8-22.4 9.6-8-3.2-12.8-12.8-9.6-22.4l27.2-67.2c3.2-8 12.8-12.8 22.4-9.6z" fill="#FFFFFF" p-id="1839"></path><path d="M228.8 208c8 3.2 12.8 12.8 9.6 22.4l-27.2 67.2c-3.2 8-12.8 12.8-22.4 9.6-8-3.2-12.8-12.8-9.6-22.4l27.2-67.2c3.2-8 12.8-12.8 22.4-9.6zM198.4 560c6.4-6.4 17.6-8 24-1.6l52.8 48c6.4 6.4 8 17.6 1.6 24-6.4 6.4-17.6 8-24 1.6l-52.8-48c-6.4-4.8-8-16-1.6-24z" fill="#FFFFFF" p-id="1840"></path><path d="M198.4 560c6.4-6.4 17.6-8 24-1.6l52.8 48c6.4 6.4 8 17.6 1.6 24-6.4 6.4-17.6 8-24 1.6l-52.8-48c-6.4-4.8-8-16-1.6-24z" fill="#FFFFFF" p-id="1841"></path><path d="M198.4 560c6.4-6.4 17.6-8 24-1.6l52.8 48c6.4 6.4 8 17.6 1.6 24-6.4 6.4-17.6 8-24 1.6l-52.8-48c-6.4-4.8-8-16-1.6-24zM344 764.8c-6.4-6.4-6.4-17.6 0-24l49.6-51.2c6.4-6.4 17.6-6.4 24 0 6.4 6.4 6.4 17.6 0 24L368 764.8c-6.4 6.4-17.6 8-24 0z" fill="#FFFFFF" p-id="1842"></path><path d="M344 764.8c-6.4-6.4-6.4-17.6 0-24l49.6-51.2c6.4-6.4 17.6-6.4 24 0 6.4 6.4 6.4 17.6 0 24L368 764.8c-6.4 6.4-17.6 8-24 0z" fill="#FFFFFF" p-id="1843"></path><path d="M344 764.8c-6.4-6.4-6.4-17.6 0-24l49.6-51.2c6.4-6.4 17.6-6.4 24 0 6.4 6.4 6.4 17.6 0 24L368 764.8c-6.4 6.4-17.6 8-24 0z" fill="#FEFDE1" p-id="1844"></path><path d="M592 793.6c-6.4 6.4-17.6 6.4-24 0l-51.2-51.2c-6.4-6.4-6.4-17.6 0-24 6.4-6.4 17.6-6.4 24 0l51.2 51.2c6.4 6.4 6.4 17.6 0 24z" fill="#FFFFFF" p-id="1845"></path><path d="M592 793.6c-6.4 6.4-17.6 6.4-24 0l-51.2-51.2c-6.4-6.4-6.4-17.6 0-24 6.4-6.4 17.6-6.4 24 0l51.2 51.2c6.4 6.4 6.4 17.6 0 24z" fill="#FFFFFF" p-id="1846"></path><path d="M592 793.6c-6.4 6.4-17.6 6.4-24 0l-51.2-51.2c-6.4-6.4-6.4-17.6 0-24 6.4-6.4 17.6-6.4 24 0l51.2 51.2c6.4 6.4 6.4 17.6 0 24z" fill="#8DC3EF" p-id="1847"></path><path d="M848 497.6c-6.4-8-4.8-17.6 3.2-24l56-44.8c8-6.4 17.6-4.8 24 3.2 6.4 8 4.8 17.6-3.2 24l-56 44.8c-8 6.4-19.2 4.8-24-3.2z" fill="#FFFFFF" p-id="1848"></path><path d="M848 497.6c-6.4-8-4.8-17.6 3.2-24l56-44.8c8-6.4 17.6-4.8 24 3.2 6.4 8 4.8 17.6-3.2 24l-56 44.8c-8 6.4-19.2 4.8-24-3.2z" fill="#FFFFFF" p-id="1849"></path><path d="M848 497.6c-6.4-8-4.8-17.6 3.2-24l56-44.8c8-6.4 17.6-4.8 24 3.2 6.4 8 4.8 17.6-3.2 24l-56 44.8c-8 6.4-19.2 4.8-24-3.2z" fill="#FFFFFF" p-id="1850"></path></svg>